<?xml version="1.0" encoding="UTF-8" standalone="no"?>
<!-- Svg Vector Icons : http://www.onlinewebfonts.com/icon -->

<svg
   xmlns:dc="http://purl.org/dc/elements/1.1/"
   xmlns:cc="http://creativecommons.org/ns#"
   xmlns:rdf="http://www.w3.org/1999/02/22-rdf-syntax-ns#"
   xmlns:svg="http://www.w3.org/2000/svg"
   xmlns="http://www.w3.org/2000/svg"
   xmlns:sodipodi="http://sodipodi.sourceforge.net/DTD/sodipodi-0.dtd"
   xmlns:inkscape="http://www.inkscape.org/namespaces/inkscape"
   version="1.1"
   x="0px"
   y="0px"
   viewBox="0 0 1000 1000"
   enable-background="new 0 0 1000 1000"
   xml:space="preserve"
   id="svg14"
   sodipodi:docname="logo_main.svg"
   inkscape:version="0.92.4 (5da689c313, 2019-01-14)"><defs
   id="defs18" /><sodipodi:namedview
   pagecolor="#ffffff"
   bordercolor="#666666"
   borderopacity="1"
   objecttolerance="10"
   gridtolerance="10"
   guidetolerance="10"
   inkscape:pageopacity="0"
   inkscape:pageshadow="2"
   inkscape:window-width="716"
   inkscape:window-height="480"
   id="namedview16"
   showgrid="false"
   inkscape:zoom="0.236"
   inkscape:cx="500"
   inkscape:cy="500"
   inkscape:window-x="2487"
   inkscape:window-y="194"
   inkscape:window-maximized="0"
   inkscape:current-layer="svg14" />
<metadata
   id="metadata2"> Svg Vector Icons : http://www.onlinewebfonts.com/icon <rdf:RDF><cc:Work
     rdf:about=""><dc:format>image/svg+xml</dc:format><dc:type
       rdf:resource="http://purl.org/dc/dcmitype/StillImage" /></cc:Work></rdf:RDF></metadata>
<g
   id="g12"
   style="fill:#e6e6e6"><g
     transform="translate(0.000000,511.000000) scale(0.100000,-0.100000)"
     id="g10"
     style="fill:#e6e6e6"><path
       d="M1379.6,3837.3c-79.4-27.8-166.6-109.1-206.3-194.4c-27.8-63.5-31.7-303.5-37.7-2483.7l-4-2416.3H5000h3868.4l-4,2426.2l-5.9,2424.2l-49.6,87.3c-33.7,59.5-79.4,103.2-136.9,134.9l-87.3,45.6l-3572.8-2C2579.8,3859.1,1419.2,3851.2,1379.6,3837.3z M8233.6,1304V-638.1H5000H1766.4V1304v1942.1H5000h3233.6V1304z"
       id="path4"
       style="fill:#e6e6e6" /><path
       d="M623.7-2245l-517.8-569.4l2446-5.9c1347-2,3551-2,4898,0l2450,5.9L9382.2-2243l-517.8,569.4H5002H1141.5L623.7-2245z M5932.4-2258.9l208.3-208.3H5000H3859.3l208.3,208.3l208.3,208.3H5000h724.1L5932.4-2258.9z"
       id="path6"
       style="fill:#e6e6e6" /><path
       d="M100-3268.7c0-127,93.2-283.7,202.4-341.2c81.3-41.7,9314-41.7,9395.3,0c109.1,57.5,202.4,214.2,202.4,341.2v47.6H5000H100V-3268.7z"
       id="path8"
       style="fill:#e6e6e6" /></g></g>
</svg>